<svg xmlns="http://www.w3.org/2000/svg" viewBox="0 0 100 100">
  <defs>
    <radialGradient id="bg" cx="50%" cy="40%" r="60%">
      <stop offset="0%" stop-color="#0d47a1" stop-opacity="1"/>
      <stop offset="100%" stop-color="#001f79" stop-opacity="1"/>
    </radialGradient>
  </defs>
  <circle cx="50" cy="50" r="50" fill="url(#bg)" />
  <path d="M28 80 Q26 95 28 100 L72 100 Q74 95 72 80 Q62 76 50 76 Q38 76 28 80Z" fill="#e3f2fd"/><ellipse cx="50" cy="49" rx="24" ry="23" fill="#f5f5f5" /><circle cx="31" cy="30" r="9" fill="#f5f5f5" /><circle cx="69" cy="30" r="9" fill="#f5f5f5" /><circle cx="31" cy="30" r="5" fill="#e0e0e0" /><circle cx="69" cy="30" r="5" fill="#e0e0e0" /><ellipse cx="50" cy="56" rx="12" ry="8" fill="#e0e0e0" /><ellipse cx="40" cy="43" rx="5" ry="5" fill="#fff" /><ellipse cx="60" cy="43" rx="5" ry="5" fill="#fff" /><circle cx="40" cy="43" r="3.5" fill="#37474f" /><circle cx="60" cy="43" r="3.5" fill="#37474f" /><circle cx="40" cy="43" r="2" fill="#000" /><circle cx="60" cy="43" r="2" fill="#000" /><circle cx="41" cy="42" r="0.8" fill="#fff" /><circle cx="61" cy="42" r="0.8" fill="#fff" /><ellipse cx="50" cy="52" rx="5" ry="4" fill="#37474f" /><path d="M44 58 Q50 64 56 58" fill="none" stroke="#546e7a" stroke-width="2"/><text x="26" y="25" font-size="8" fill="#90caf9" opacity="0.8">❄</text><text x="65" y="20" font-size="7" fill="#90caf9" opacity="0.6">❄</text>
</svg>