<svg xmlns="http://www.w3.org/2000/svg" viewBox="0 0 100 100">
  <defs>
    <radialGradient id="bg" cx="50%" cy="40%" r="60%">
      <stop offset="0%" stop-color="#4e342e" stop-opacity="1"/>
      <stop offset="100%" stop-color="#260c06" stop-opacity="1"/>
    </radialGradient>
  </defs>
  <circle cx="50" cy="50" r="50" fill="url(#bg)" />
  <path d="M28 80 Q26 95 28 100 L72 100 Q74 95 72 80 Q62 76 50 76 Q38 76 28 80Z" fill="#6d4c41"/><ellipse cx="50" cy="49" rx="24" ry="23" fill="#8d6e63" /><circle cx="31" cy="30" r="9" fill="#8d6e63" /><circle cx="69" cy="30" r="9" fill="#8d6e63" /><circle cx="31" cy="30" r="5" fill="#6d4c41" /><circle cx="69" cy="30" r="5" fill="#6d4c41" /><ellipse cx="50" cy="56" rx="12" ry="8" fill="#bcaaa4" /><ellipse cx="40" cy="43" rx="5" ry="5" fill="#fff" /><ellipse cx="60" cy="43" rx="5" ry="5" fill="#fff" /><circle cx="40" cy="43" r="3.5" fill="#4e342e" /><circle cx="60" cy="43" r="3.5" fill="#4e342e" /><circle cx="40" cy="43" r="2" fill="#000" /><circle cx="60" cy="43" r="2" fill="#000" /><circle cx="41" cy="42" r="0.8" fill="#fff" /><circle cx="61" cy="42" r="0.8" fill="#fff" /><ellipse cx="50" cy="52" rx="5" ry="4" fill="#1a1a1a" /><path d="M44 58 Q50 64 56 58" fill="none" stroke="#5d4037" stroke-width="2"/>
</svg>