<svg xmlns="http://www.w3.org/2000/svg" viewBox="0 0 100 100">
  <defs>
    <radialGradient id="bg" cx="50%" cy="40%" r="60%">
      <stop offset="0%" stop-color="#f9a825" stop-opacity="1"/>
      <stop offset="100%" stop-color="#d18000" stop-opacity="1"/>
    </radialGradient>
  </defs>
  <circle cx="50" cy="50" r="50" fill="url(#bg)" />
  <path d="M30 82 Q28 95 30 100 L70 100 Q72 95 70 82 Q62 78 50 78 Q38 78 30 82Z" fill="#fbc02d"/><ellipse cx="26" cy="62" rx="8" ry="6" fill="#fff9c4" opacity="0.8"/><ellipse cx="74" cy="62" rx="8" ry="6" fill="#fff9c4" opacity="0.8"/><circle cx="50" cy="48" r="22" fill="#fff9c4" /><path d="M42 28 Q44 18 48 24 Q50 16 52 24 Q56 18 58 28" fill="#ef5350"/><ellipse cx="50" cy="28" rx="9" ry="3" fill="#ef5350"/><ellipse cx="40" cy="44" rx="5" ry="4.5" fill="#fff" /><ellipse cx="60" cy="44" rx="5" ry="4.5" fill="#fff" /><circle cx="40" cy="44" r="3" fill="#1a1a1a" /><circle cx="60" cy="44" r="3" fill="#1a1a1a" /><circle cx="41" cy="43" r="1" fill="#fff" /><circle cx="61" cy="43" r="1" fill="#fff" /><polygon points="50,52 44,58 56,58" fill="#ff8f00"/><ellipse cx="35" cy="50" rx="5" ry="3" fill="#ff8a80" opacity="0.5"/><ellipse cx="65" cy="50" rx="5" ry="3" fill="#ff8a80" opacity="0.5"/>
</svg>