<svg xmlns="http://www.w3.org/2000/svg" viewBox="0 0 100 100">
  <defs>
    <radialGradient id="bg" cx="50%" cy="40%" r="60%">
      <stop offset="0%" stop-color="#1b5e20" stop-opacity="1"/>
      <stop offset="100%" stop-color="#003600" stop-opacity="1"/>
    </radialGradient>
  </defs>
  <circle cx="50" cy="50" r="50" fill="url(#bg)" />
  <ellipse cx="28" cy="56" rx="7" ry="5" fill="#66bb6a" transform="rotate(-20,28,56)"/><ellipse cx="72" cy="56" rx="7" ry="5" fill="#66bb6a" transform="rotate(20,72,56)"/><ellipse cx="32" cy="68" rx="6" ry="5" fill="#66bb6a" transform="rotate(20,32,68)"/><ellipse cx="68" cy="68" rx="6" ry="5" fill="#66bb6a" transform="rotate(-20,68,68)"/><ellipse cx="50" cy="52" rx="26" ry="21" fill="#388e3c" /><ellipse cx="50" cy="52" rx="18" ry="14" fill="#2e7d32" /><line x1="50" y1="38" x2="50" y2="66" stroke="#1b5e20" stroke-width="1.5" opacity="0.5"/><line x1="34" y1="44" x2="66" y2="60" stroke="#1b5e20" stroke-width="1.5" opacity="0.5"/><line x1="66" y1="44" x2="34" y2="60" stroke="#1b5e20" stroke-width="1.5" opacity="0.5"/><circle cx="50" cy="34" r="13" fill="#66bb6a" /><circle cx="44" cy="32" r="3.5" fill="#fff" /><circle cx="56" cy="32" r="3.5" fill="#fff" /><circle cx="44" cy="32" r="2" fill="#1b5e20" /><circle cx="56" cy="32" r="2" fill="#1b5e20" /><circle cx="44" cy="32" r="1" fill="#000" /><circle cx="56" cy="32" r="1" fill="#000" /><path d="M44 38 Q50 42 56 38" fill="none" stroke="#1b5e20" stroke-width="1.5"/>
</svg>