<svg xmlns="http://www.w3.org/2000/svg" viewBox="0 0 100 100">
  <defs>
    <radialGradient id="bg" cx="50%" cy="40%" r="60%">
      <stop offset="0%" stop-color="#1a237e" stop-opacity="1"/>
      <stop offset="100%" stop-color="#000056" stop-opacity="1"/>
    </radialGradient>
  </defs>
  <circle cx="50" cy="50" r="50" fill="url(#bg)" />
  <path d="M32 78 Q30 95 30 100 L70 100 Q70 95 68 78 Q60 72 50 72 Q40 72 32 78Z" fill="#1a1a1a"/><path d="M38 80 Q36 95 38 100 L62 100 Q64 95 62 80 Q58 76 50 76 Q42 76 38 80Z" fill="#f5f5f5"/><circle cx="50" cy="44" r="22" fill="#1a1a1a" /><ellipse cx="50" cy="48" rx="13" ry="12" fill="#f5f5f5" /><circle cx="43" cy="40" r="4" fill="#fff" /><circle cx="57" cy="40" r="4" fill="#fff" /><circle cx="43" cy="40" r="2.5" fill="#1a1a1a" /><circle cx="57" cy="40" r="2.5" fill="#1a1a1a" /><circle cx="44" cy="39" r="0.8" fill="#fff" /><circle cx="58" cy="39" r="0.8" fill="#fff" /><polygon points="50,50 44,56 56,56" fill="#ff8f00"/><circle cx="37" cy="50" r="4" fill="#ffccbc" opacity="0.6"/><circle cx="63" cy="50" r="4" fill="#ffccbc" opacity="0.6"/>
</svg>