<svg xmlns="http://www.w3.org/2000/svg" viewBox="0 0 100 100">
  <defs>
    <radialGradient id="bg" cx="50%" cy="40%" r="60%">
      <stop offset="0%" stop-color="#7b1fa2" stop-opacity="1"/>
      <stop offset="100%" stop-color="#53007a" stop-opacity="1"/>
    </radialGradient>
  </defs>
  <circle cx="50" cy="50" r="50" fill="url(#bg)" />
  <path d="M26 80 Q24 95 26 100 L74 100 Q76 95 74 80 Q62 74 50 74 Q38 74 26 80Z" fill="#9c27b0"/><ellipse cx="50" cy="52" rx="27" ry="24" fill="#ba68c8" /><circle cx="28" cy="35" r="8" fill="#ba68c8" /><circle cx="72" cy="35" r="8" fill="#ba68c8" /><circle cx="28" cy="35" r="5" fill="#ce93d8" /><circle cx="72" cy="35" r="5" fill="#ce93d8" /><ellipse cx="50" cy="60" rx="16" ry="11" fill="#ce93d8" /><ellipse cx="44" cy="58" rx="3.5" ry="2.5" fill="#9c27b0" /><ellipse cx="56" cy="58" rx="3.5" ry="2.5" fill="#9c27b0" /><ellipse cx="38" cy="42" rx="5" ry="4" fill="#fff" /><ellipse cx="62" cy="42" rx="5" ry="4" fill="#fff" /><circle cx="38" cy="42" r="3" fill="#4a148c" /><circle cx="62" cy="42" r="3" fill="#4a148c" /><circle cx="38" cy="42" r="1.5" fill="#000" /><circle cx="62" cy="42" r="1.5" fill="#000" /><circle cx="39" cy="41" r="0.8" fill="#fff" /><circle cx="63" cy="41" r="0.8" fill="#fff" /><path d="M40 64 Q50 70 60 64" fill="none" stroke="#7b1fa2" stroke-width="2.5"/>
</svg>