<svg xmlns="http://www.w3.org/2000/svg" viewBox="0 0 100 100">
  <defs>
    <radialGradient id="bg" cx="50%" cy="40%" r="60%">
      <stop offset="0%" stop-color="#880e4f" stop-opacity="1"/>
      <stop offset="100%" stop-color="#600027" stop-opacity="1"/>
    </radialGradient>
  </defs>
  <circle cx="50" cy="50" r="50" fill="url(#bg)" />
  <path d="M30 82 Q28 95 30 100 L70 100 Q72 95 70 82 Q62 78 50 78 Q38 78 30 82Z" fill="#ad1457"/><ellipse cx="50" cy="49" rx="22" ry="21" fill="#f8bbd0" /><ellipse cx="28" cy="42" rx="7" ry="16" fill="#ce93d8" /><ellipse cx="72" cy="42" rx="7" ry="16" fill="#ce93d8" /><ellipse cx="28" cy="42" rx="5" ry="13" fill="#e1bee7" /><polygon points="50,14 45,30 55,30" fill="#FFD700"/><line x1="48" y1="18" x2="52" y2="28" stroke="#FFF9C4" stroke-width="1" opacity="0.7"/><ellipse cx="33" cy="28" rx="6" ry="9" fill="#f8bbd0" /><ellipse cx="67" cy="28" rx="6" ry="9" fill="#f8bbd0" /><ellipse cx="33" cy="28" rx="3" ry="6" fill="#f48fb1" /><ellipse cx="67" cy="28" rx="3" ry="6" fill="#f48fb1" /><ellipse cx="40" cy="46" rx="5" ry="4.5" fill="#fff" /><ellipse cx="60" cy="46" rx="5" ry="4.5" fill="#fff" /><circle cx="40" cy="46" r="3" fill="#7b1fa2" /><circle cx="60" cy="46" r="3" fill="#7b1fa2" /><circle cx="40" cy="46" r="1.5" fill="#000" /><circle cx="60" cy="46" r="1.5" fill="#000" /><circle cx="41" cy="45" r="0.8" fill="#fff" /><circle cx="61" cy="45" r="0.8" fill="#fff" /><line x1="38" y1="42" x2="36" y2="39" stroke="#222" stroke-width="1.2"/><line x1="62" y1="42" x2="64" y2="39" stroke="#222" stroke-width="1.2"/><ellipse cx="50" cy="54" rx="4" ry="3" fill="#f48fb1" /><path d="M45 57 Q50 62 55 57" fill="none" stroke="#e91e63" stroke-width="1.5"/><circle cx="34" cy="60" r="2" fill="#FFD700" opacity="0.7"/><circle cx="66" cy="60" r="2" fill="#FFD700" opacity="0.7"/><circle cx="50" cy="65" r="2" fill="#FFD700" opacity="0.7"/>
</svg>