<svg xmlns="http://www.w3.org/2000/svg" viewBox="0 0 100 100">
  <defs>
    <radialGradient id="bg" cx="50%" cy="40%" r="60%">
      <stop offset="0%" stop-color="#7b1fa2" stop-opacity="1"/>
      <stop offset="100%" stop-color="#53007a" stop-opacity="1"/>
    </radialGradient>
  </defs>
  <circle cx="50" cy="50" r="50" fill="url(#bg)" />
  <path d="M30 82 Q28 95 30 100 L70 100 Q72 95 70 82 Q62 78 50 78 Q38 78 30 82Z" fill="#9c27b0"/><ellipse cx="50" cy="50" rx="22" ry="21" fill="#f5f5f5" /><ellipse cx="38" cy="24" rx="7" ry="16" fill="#f5f5f5"/><ellipse cx="62" cy="24" rx="7" ry="16" fill="#f5f5f5"/><ellipse cx="38" cy="24" rx="4" ry="13" fill="#f48fb1"/><ellipse cx="62" cy="24" rx="4" ry="13" fill="#f48fb1"/><circle cx="41" cy="46" r="5" fill="#ff80ab" /><circle cx="59" cy="46" r="5" fill="#ff80ab" /><circle cx="41" cy="46" r="3" fill="#e91e63" /><circle cx="59" cy="46" r="3" fill="#e91e63" /><circle cx="41" cy="46" r="1.5" fill="#000" /><circle cx="59" cy="46" r="1.5" fill="#000" /><circle cx="42" cy="45" r="0.8" fill="#fff" /><circle cx="60" cy="45" r="0.8" fill="#fff" /><circle cx="50" cy="53" r="3" fill="#f48fb1" /><line x1="28" y1="52" x2="44" y2="53" stroke="#bbb" stroke-width="1"/><line x1="56" y1="53" x2="72" y2="52" stroke="#bbb" stroke-width="1"/><path d="M46 55 Q50 59 54 55" fill="none" stroke="#e91e63" stroke-width="1.5"/><ellipse cx="35" cy="52" rx="5" ry="3" fill="#f48fb1" opacity="0.4"/><ellipse cx="65" cy="52" rx="5" ry="3" fill="#f48fb1" opacity="0.4"/>
</svg>