<svg xmlns="http://www.w3.org/2000/svg" viewBox="0 0 100 100">
  <defs>
    <radialGradient id="bg" cx="50%" cy="40%" r="60%">
      <stop offset="0%" stop-color="#006064" stop-opacity="1"/>
      <stop offset="100%" stop-color="#00383c" stop-opacity="1"/>
    </radialGradient>
  </defs>
  <circle cx="50" cy="50" r="50" fill="url(#bg)" />
  <ellipse cx="50" cy="55" rx="28" ry="18" fill="#00acc1"/><polygon points="22,55 10,42 10,68" fill="#0097a7"/><path d="M38 37 Q45 28 58 37" fill="#00bcd4" opacity="0.8"/><circle cx="45" cy="52" r="4" fill="#0097a7" opacity="0.4"/><circle cx="53" cy="52" r="4" fill="#0097a7" opacity="0.4"/><circle cx="60" cy="55" r="4" fill="#0097a7" opacity="0.4"/><circle cx="45" cy="60" r="4" fill="#0097a7" opacity="0.4"/><circle cx="53" cy="60" r="4" fill="#0097a7" opacity="0.4"/><circle cx="63" cy="48" r="7" fill="#fff" /><circle cx="63" cy="48" r="4" fill="#1565c0" /><circle cx="63" cy="48" r="2" fill="#000" /><circle cx="64" cy="47" r="1" fill="#fff" /><path d="M72 56 Q76 60 72 64" fill="none" stroke="#00838f" stroke-width="2" stroke-linecap="round"/><circle cx="80" cy="40" r="3" fill="#b2ebf2" opacity="0.7"/><circle cx="86" cy="32" r="2" fill="#b2ebf2" opacity="0.5"/>
</svg>