<svg xmlns="http://www.w3.org/2000/svg" viewBox="0 0 100 100">
  <defs>
    <radialGradient id="bg" cx="50%" cy="40%" r="60%">
      <stop offset="0%" stop-color="#e65100" stop-opacity="1"/>
      <stop offset="100%" stop-color="#be2900" stop-opacity="1"/>
    </radialGradient>
  </defs>
  <circle cx="50" cy="50" r="50" fill="url(#bg)" />
  <path d="M30 82 Q28 95 30 100 L70 100 Q72 95 70 82 Q62 78 50 78 Q38 78 30 82Z" fill="#ef6c00"/><ellipse cx="50" cy="48" rx="24" ry="22" fill="#f4a460" /><polygon points="30,30 26,14 40,28" fill="#f4a460"/><polygon points="70,30 74,14 60,28" fill="#f4a460"/><polygon points="31,29 28,17 39,28" fill="#ff8a65"/><polygon points="69,29 72,17 61,28" fill="#ff8a65"/><path d="M38 30 Q42 26 46 30" stroke="#c0622a" stroke-width="1.5" fill="none"/><path d="M54 30 Q58 26 62 30" stroke="#c0622a" stroke-width="1.5" fill="none"/><path d="M50 22 Q52 18 54 22" stroke="#c0622a" stroke-width="1.5" fill="none"/><ellipse cx="41" cy="45" rx="5" ry="4" fill="#fff" /><ellipse cx="59" cy="45" rx="5" ry="4" fill="#fff" /><circle cx="41" cy="45" r="3" fill="#4caf50" /><circle cx="59" cy="45" r="3" fill="#4caf50" /><circle cx="41" cy="45" r="1.5" fill="#000" /><circle cx="59" cy="45" r="1.5" fill="#000" /><circle cx="42" cy="44" r="0.8" fill="#fff" /><circle cx="60" cy="44" r="0.8" fill="#fff" /><path d="M48 52 L50 54 L52 52 Q50 50 48 52Z" fill="#e91e63"/><line x1="28" y1="52" x2="44" y2="53" stroke="#888" stroke-width="1" opacity="0.7"/><line x1="28" y1="56" x2="44" y2="55" stroke="#888" stroke-width="1" opacity="0.7"/><line x1="56" y1="53" x2="72" y2="52" stroke="#888" stroke-width="1" opacity="0.7"/><line x1="56" y1="55" x2="72" y2="56" stroke="#888" stroke-width="1" opacity="0.7"/><path d="M47 55 Q50 58 53 55" fill="none" stroke="#c0622a" stroke-width="1.5"/>
</svg>