<svg xmlns="http://www.w3.org/2000/svg" viewBox="0 0 100 100">
  <defs>
    <radialGradient id="bg" cx="50%" cy="40%" r="60%">
      <stop offset="0%" stop-color="#6d4c41" stop-opacity="1"/>
      <stop offset="100%" stop-color="#452419" stop-opacity="1"/>
    </radialGradient>
  </defs>
  <circle cx="50" cy="50" r="50" fill="url(#bg)" />
  <path d="M30 82 Q28 95 30 100 L70 100 Q72 95 70 82 Q62 78 50 78 Q38 78 30 82Z" fill="#8d6e63"/><path d="M74 60 Q90 50 88 70 Q86 85 70 78 Q82 72 80 62 Q78 54 74 60Z" fill="#8d6e63"/><path d="M76 62 Q88 55 86 70 Q84 78 76 74 Q82 68 80 62Z" fill="#e0c9b4" opacity="0.5"/><ellipse cx="50" cy="50" rx="21" ry="20" fill="#a1887f" /><ellipse cx="33" cy="30" rx="7" ry="10" fill="#a1887f" /><ellipse cx="67" cy="30" rx="7" ry="10" fill="#a1887f" /><ellipse cx="33" cy="30" rx="4" ry="7" fill="#ffccbc" /><ellipse cx="67" cy="30" rx="4" ry="7" fill="#ffccbc" /><ellipse cx="50" cy="56" rx="11" ry="8" fill="#d7ccc8" /><ellipse cx="40" cy="46" rx="4.5" ry="4" fill="#fff" /><ellipse cx="60" cy="46" rx="4.5" ry="4" fill="#fff" /><circle cx="40" cy="46" r="2.5" fill="#4e342e" /><circle cx="60" cy="46" r="2.5" fill="#4e342e" /><circle cx="40" cy="46" r="1.5" fill="#000" /><circle cx="60" cy="46" r="1.5" fill="#000" /><circle cx="41" cy="45" r="0.7" fill="#fff" /><circle cx="61" cy="45" r="0.7" fill="#fff" /><ellipse cx="50" cy="52" rx="3" ry="2.5" fill="#3e2723" /><path d="M45 56 Q50 60 55 56" fill="none" stroke="#795548" stroke-width="1.5"/>
</svg>