<svg xmlns="http://www.w3.org/2000/svg" viewBox="0 0 100 100">
  <defs>
    <radialGradient id="bg" cx="50%" cy="40%" r="60%">
      <stop offset="0%" stop-color="#e65100" stop-opacity="1"/>
      <stop offset="100%" stop-color="#be2900" stop-opacity="1"/>
    </radialGradient>
  </defs>
  <circle cx="50" cy="50" r="50" fill="url(#bg)" />
  <path d="M30 82 Q28 95 30 100 L70 100 Q72 95 70 82 Q62 78 50 78 Q38 78 30 82Z" fill="#f4511e"/><ellipse cx="50" cy="48" rx="23" ry="22" fill="#ff8a50" /><polygon points="31,31 26,12 43,29" fill="#ff8a50"/><polygon points="69,31 74,12 57,29" fill="#ff8a50"/><polygon points="32,30 28,15 41,29" fill="#fff"/><polygon points="68,30 72,15 59,29" fill="#fff"/><ellipse cx="50" cy="54" rx="13" ry="10" fill="#fff" /><ellipse cx="40" cy="44" rx="5" ry="4" fill="#fff" /><ellipse cx="60" cy="44" rx="5" ry="4" fill="#fff" /><circle cx="40" cy="44" r="3" fill="#2196f3" /><circle cx="60" cy="44" r="3" fill="#2196f3" /><circle cx="40" cy="44" r="1.5" fill="#000" /><circle cx="60" cy="44" r="1.5" fill="#000" /><circle cx="41" cy="43" r="0.8" fill="#fff" /><circle cx="61" cy="43" r="0.8" fill="#fff" /><path d="M47 51 L50 54 L53 51 Q50 48 47 51Z" fill="#000"/><path d="M45 56 Q50 60 55 56" fill="none" stroke="#c62828" stroke-width="1.5"/><line x1="26" y1="53" x2="43" y2="53" stroke="#aaa" stroke-width="1"/><line x1="57" y1="53" x2="74" y2="53" stroke="#aaa" stroke-width="1"/>
</svg>