<svg xmlns="http://www.w3.org/2000/svg" viewBox="0 0 100 100">
  <defs>
    <radialGradient id="bg" cx="50%" cy="40%" r="60%">
      <stop offset="0%" stop-color="#263238" stop-opacity="1"/>
      <stop offset="100%" stop-color="#000a10" stop-opacity="1"/>
    </radialGradient>
  </defs>
  <circle cx="50" cy="50" r="50" fill="url(#bg)" />
  <path d="M30 82 Q28 95 30 100 L70 100 Q72 95 70 82 Q62 78 50 78 Q38 78 30 82Z" fill="#37474f"/><ellipse cx="50" cy="49" rx="23" ry="22" fill="#f5f5f5" /><circle cx="30" cy="29" r="9" fill="#1a1a1a" /><circle cx="70" cy="29" r="9" fill="#1a1a1a" /><ellipse cx="40" cy="45" rx="8" ry="7" fill="#1a1a1a" /><ellipse cx="60" cy="45" rx="8" ry="7" fill="#1a1a1a" /><ellipse cx="40" cy="45" rx="4" ry="4" fill="#fff" /><ellipse cx="60" cy="45" rx="4" ry="4" fill="#fff" /><circle cx="40" cy="45" r="2.5" fill="#000" /><circle cx="60" cy="45" r="2.5" fill="#000" /><circle cx="41" cy="44" r="0.8" fill="#fff" /><circle cx="61" cy="44" r="0.8" fill="#fff" /><ellipse cx="50" cy="56" rx="11" ry="8" fill="#e0e0e0" /><ellipse cx="50" cy="52" rx="4" ry="3" fill="#1a1a1a" /><path d="M45 58 Q50 63 55 58" fill="none" stroke="#616161" stroke-width="2"/>
</svg>