<svg xmlns="http://www.w3.org/2000/svg" viewBox="0 0 100 100">
  <defs>
    <radialGradient id="bg" cx="50%" cy="40%" r="60%">
      <stop offset="0%" stop-color="#4a148c" stop-opacity="1"/>
      <stop offset="100%" stop-color="#220064" stop-opacity="1"/>
    </radialGradient>
  </defs>
  <circle cx="50" cy="50" r="50" fill="url(#bg)" />
  <path d="M30 82 Q28 90 30 100 L70 100 Q72 90 70 82 Q62 78 50 78 Q38 78 30 82Z" fill="#ad1457"/>
<ellipse cx="50" cy="74" rx="10" ry="8" fill="#D9A870" />
<ellipse cx="50" cy="46" rx="22" ry="26" fill="#F5C89A" />
<ellipse cx="28" cy="47" rx="5" ry="7" fill="#F5C89A" />
<ellipse cx="28" cy="47" rx="3" ry="5" fill="#D9A870" opacity="0.4"/>
<ellipse cx="72" cy="47" rx="5" ry="7" fill="#F5C89A" />
<ellipse cx="72" cy="47" rx="3" ry="5" fill="#D9A870" opacity="0.4"/>
<ellipse cx="50" cy="54" rx="14" ry="8" fill="#D9A870" opacity="0.25"/>
<ellipse cx="42" cy="44" rx="5" ry="4" fill="#fff" />
<ellipse cx="58" cy="44" rx="5" ry="4" fill="#fff" />
<circle cx="42" cy="44" r="3" fill="#1a4a8a" />
<circle cx="58" cy="44" r="3" fill="#1a4a8a" />
<circle cx="42" cy="44" r="1.5" fill="#000" />
<circle cx="58" cy="44" r="1.5" fill="#000" />
<circle cx="43" cy="43" r="0.8" fill="#fff" />
<circle cx="59" cy="43" r="0.8" fill="#fff" />
<path d="M48 51 Q50 54 52 51" fill="none" stroke="#D9A870" stroke-width="1.5" stroke-linecap="round" />
<circle cx="47.5" cy="52" r="1" fill="#D9A870" opacity="0.5"/>
<circle cx="52.5" cy="52" r="1" fill="#D9A870" opacity="0.5"/>
<ellipse cx="50" cy="25" rx="24" ry="16" fill="#1a1a1a" />
<rect x="27" y="25" width="46" height="14" fill="#1a1a1a"/>
<ellipse cx="27" cy="40" rx="7" ry="13" fill="#1a1a1a" />
<ellipse cx="73" cy="40" rx="7" ry="13" fill="#1a1a1a" />
<circle cx="36" cy="22" r="5" fill="#1a1a1a" />
<circle cx="44" cy="20" r="6" fill="#1a1a1a" />
<circle cx="52" cy="19" r="6" fill="#1a1a1a" />
<circle cx="60" cy="20" r="5" fill="#1a1a1a" />
<circle cx="67" cy="23" r="5" fill="#1a1a1a" />
<circle cx="37" cy="22" r="2" fill="#333333" opacity="0.6"/>
<circle cx="53" cy="19" r="2" fill="#333333" opacity="0.6"/>
<path d="M42 57 Q50 65 58 57" fill="none" stroke="#c0605a" stroke-width="2.5" stroke-linecap="round" />
<path d="M42 57 Q50 65 58 57 Q50 61 42 57Z" fill="#fff" opacity="0.6"/>
<path d="M42 57 Q50 65 58 57 Q50 68 42 57Z" fill="#a04040" opacity="0.4"/>
<line x1="38" y1="40" x2="36" y2="37" stroke="#222" stroke-width="1.2"/><line x1="41" y1="39" x2="40" y2="36" stroke="#222" stroke-width="1.2"/><line x1="44" y1="39" x2="44" y2="36" stroke="#222" stroke-width="1.2"/><line x1="54" y1="39" x2="54" y2="36" stroke="#222" stroke-width="1.2"/><line x1="57" y1="39" x2="57" y2="36" stroke="#222" stroke-width="1.2"/><line x1="60" y1="40" x2="62" y2="37" stroke="#222" stroke-width="1.2"/>
<ellipse cx="36" cy="50" rx="5" ry="3" fill="#ff8a80" opacity="0.35"/><ellipse cx="64" cy="50" rx="5" ry="3" fill="#ff8a80" opacity="0.35"/>
<circle cx="28" cy="50" r="3" fill="#00bcd4" />
<circle cx="72" cy="50" r="3" fill="#00bcd4" /><rect x="34" y="40" width="12" height="9" rx="4" fill="none" stroke="#444" stroke-width="1.5"/>
<rect x="54" y="40" width="12" height="9" rx="4" fill="none" stroke="#444" stroke-width="1.5"/>
<line x1="46" y1="44" x2="54" y2="44" stroke="#444" stroke-width="1.5"/>
<line x1="28" y1="43" x2="34" y2="43" stroke="#444" stroke-width="1.5"/>
<line x1="66" y1="43" x2="72" y2="43" stroke="#444" stroke-width="1.5"/>
</svg>