<svg xmlns="http://www.w3.org/2000/svg" viewBox="0 0 100 100">
  <defs>
    <radialGradient id="bg" cx="50%" cy="40%" r="60%">
      <stop offset="0%" stop-color="#37474f" stop-opacity="1"/>
      <stop offset="100%" stop-color="#0f1f27" stop-opacity="1"/>
    </radialGradient>
  </defs>
  <circle cx="50" cy="50" r="50" fill="url(#bg)" />
  <path d="M30 82 Q28 90 30 100 L70 100 Q72 90 70 82 Q62 78 50 78 Q38 78 30 82Z" fill="#2e7d32"/>
<ellipse cx="50" cy="74" rx="10" ry="8" fill="#A06030" />
<ellipse cx="50" cy="46" rx="22" ry="26" fill="#C68642" />
<ellipse cx="28" cy="47" rx="5" ry="7" fill="#C68642" />
<ellipse cx="28" cy="47" rx="3" ry="5" fill="#A06030" opacity="0.4"/>
<ellipse cx="72" cy="47" rx="5" ry="7" fill="#C68642" />
<ellipse cx="72" cy="47" rx="3" ry="5" fill="#A06030" opacity="0.4"/>
<ellipse cx="50" cy="54" rx="14" ry="8" fill="#A06030" opacity="0.25"/>
<ellipse cx="42" cy="44" rx="5" ry="4" fill="#fff" />
<ellipse cx="58" cy="44" rx="5" ry="4" fill="#fff" />
<circle cx="42" cy="44" r="3" fill="#3d2b1f" />
<circle cx="58" cy="44" r="3" fill="#3d2b1f" />
<circle cx="42" cy="44" r="1.5" fill="#000" />
<circle cx="58" cy="44" r="1.5" fill="#000" />
<circle cx="43" cy="43" r="0.8" fill="#fff" />
<circle cx="59" cy="43" r="0.8" fill="#fff" />
<path d="M48 51 Q50 54 52 51" fill="none" stroke="#A06030" stroke-width="1.5" stroke-linecap="round" />
<circle cx="47.5" cy="52" r="1" fill="#A06030" opacity="0.5"/>
<circle cx="52.5" cy="52" r="1" fill="#A06030" opacity="0.5"/>
<ellipse cx="50" cy="28" rx="22" ry="13" fill="#888888" />
<rect x="28" y="28" width="44" height="8" fill="#888888"/>
<ellipse cx="28" cy="39" rx="5" ry="9" fill="#888888" />
<ellipse cx="72" cy="39" rx="5" ry="9" fill="#888888" />
<rect x="28" y="28" width="44" height="6" fill="#929292" opacity="0.3"/>
<path d="M43 57 Q50 63 57 57" fill="none" stroke="#c0605a" stroke-width="2.2" stroke-linecap="round" />
<rect x="34" y="40" width="12" height="9" rx="4" fill="none" stroke="#444" stroke-width="1.5"/>
<rect x="54" y="40" width="12" height="9" rx="4" fill="none" stroke="#444" stroke-width="1.5"/>
<line x1="46" y1="44" x2="54" y2="44" stroke="#444" stroke-width="1.5"/>
<line x1="28" y1="43" x2="34" y2="43" stroke="#444" stroke-width="1.5"/>
<line x1="66" y1="43" x2="72" y2="43" stroke="#444" stroke-width="1.5"/><circle cx="40" cy="58" r="1.2" fill="#8a4a06" opacity="0.4"/>
<circle cx="44" cy="60" r="1.2" fill="#8a4a06" opacity="0.4"/>
<circle cx="48" cy="61" r="1.2" fill="#8a4a06" opacity="0.4"/>
<circle cx="52" cy="61" r="1.2" fill="#8a4a06" opacity="0.4"/>
<circle cx="56" cy="60" r="1.2" fill="#8a4a06" opacity="0.4"/>
<circle cx="60" cy="58" r="1.2" fill="#8a4a06" opacity="0.4"/>
</svg>