<svg xmlns="http://www.w3.org/2000/svg" viewBox="0 0 100 100">
  <defs>
    <radialGradient id="bg" cx="50%" cy="40%" r="60%">
      <stop offset="0%" stop-color="#e65100" stop-opacity="1"/>
      <stop offset="100%" stop-color="#be2900" stop-opacity="1"/>
    </radialGradient>
  </defs>
  <circle cx="50" cy="50" r="50" fill="url(#bg)" />
  <path d="M30 82 Q28 90 30 100 L70 100 Q72 90 70 82 Q62 78 50 78 Q38 78 30 82Z" fill="#00695c"/>
<ellipse cx="50" cy="74" rx="10" ry="8" fill="#D9A870" />
<ellipse cx="50" cy="46" rx="22" ry="26" fill="#F5C89A" />
<ellipse cx="28" cy="47" rx="5" ry="7" fill="#F5C89A" />
<ellipse cx="28" cy="47" rx="3" ry="5" fill="#D9A870" opacity="0.4"/>
<ellipse cx="72" cy="47" rx="5" ry="7" fill="#F5C89A" />
<ellipse cx="72" cy="47" rx="3" ry="5" fill="#D9A870" opacity="0.4"/>
<ellipse cx="50" cy="54" rx="14" ry="8" fill="#D9A870" opacity="0.25"/>
<ellipse cx="42" cy="44" rx="5" ry="4" fill="#fff" />
<ellipse cx="58" cy="44" rx="5" ry="4" fill="#fff" />
<circle cx="42" cy="44" r="3" fill="#3d2b1f" />
<circle cx="58" cy="44" r="3" fill="#3d2b1f" />
<circle cx="42" cy="44" r="1.5" fill="#000" />
<circle cx="58" cy="44" r="1.5" fill="#000" />
<circle cx="43" cy="43" r="0.8" fill="#fff" />
<circle cx="59" cy="43" r="0.8" fill="#fff" />
<path d="M48 51 Q50 54 52 51" fill="none" stroke="#D9A870" stroke-width="1.5" stroke-linecap="round" />
<circle cx="47.5" cy="52" r="1" fill="#D9A870" opacity="0.5"/>
<circle cx="52.5" cy="52" r="1" fill="#D9A870" opacity="0.5"/>
<ellipse cx="50" cy="26" rx="23" ry="15" fill="#4a3728" />
<rect x="28" y="26" width="44" height="12" fill="#4a3728"/>
<ellipse cx="28" cy="40" rx="6" ry="12" fill="#4a3728" />
<ellipse cx="72" cy="40" rx="6" ry="12" fill="#4a3728" />
<path d="M30 30 Q35 24 40 30 Q45 24 50 30 Q55 24 60 30 Q65 24 70 30" fill="none" stroke="#685546" stroke-width="2" stroke-linecap="round" opacity="0.5"/>
<path d="M43 57 Q50 63 57 57" fill="none" stroke="#c0605a" stroke-width="2.2" stroke-linecap="round" />
<circle cx="40" cy="58" r="1.2" fill="#b98c5e" opacity="0.4"/>
<circle cx="44" cy="60" r="1.2" fill="#b98c5e" opacity="0.4"/>
<circle cx="48" cy="61" r="1.2" fill="#b98c5e" opacity="0.4"/>
<circle cx="52" cy="61" r="1.2" fill="#b98c5e" opacity="0.4"/>
<circle cx="56" cy="60" r="1.2" fill="#b98c5e" opacity="0.4"/>
<circle cx="60" cy="58" r="1.2" fill="#b98c5e" opacity="0.4"/>
</svg>