<svg xmlns="http://www.w3.org/2000/svg" viewBox="0 0 100 100">
  <defs>
    <radialGradient id="bg" cx="50%" cy="40%" r="60%">
      <stop offset="0%" stop-color="#00838f" stop-opacity="1"/>
      <stop offset="100%" stop-color="#005b67" stop-opacity="1"/>
    </radialGradient>
  </defs>
  <circle cx="50" cy="50" r="50" fill="url(#bg)" />
  <path d="M30 82 Q28 90 30 100 L70 100 Q72 90 70 82 Q62 78 50 78 Q38 78 30 82Z" fill="#4527a0"/>
<ellipse cx="50" cy="74" rx="10" ry="8" fill="#6A3D18" />
<ellipse cx="50" cy="46" rx="22" ry="26" fill="#8D5524" />
<ellipse cx="28" cy="47" rx="5" ry="7" fill="#8D5524" />
<ellipse cx="28" cy="47" rx="3" ry="5" fill="#6A3D18" opacity="0.4"/>
<ellipse cx="72" cy="47" rx="5" ry="7" fill="#8D5524" />
<ellipse cx="72" cy="47" rx="3" ry="5" fill="#6A3D18" opacity="0.4"/>
<ellipse cx="50" cy="54" rx="14" ry="8" fill="#6A3D18" opacity="0.25"/>
<ellipse cx="42" cy="44" rx="5" ry="4" fill="#fff" />
<ellipse cx="58" cy="44" rx="5" ry="4" fill="#fff" />
<circle cx="42" cy="44" r="3" fill="#8B4513" />
<circle cx="58" cy="44" r="3" fill="#8B4513" />
<circle cx="42" cy="44" r="1.5" fill="#000" />
<circle cx="58" cy="44" r="1.5" fill="#000" />
<circle cx="43" cy="43" r="0.8" fill="#fff" />
<circle cx="59" cy="43" r="0.8" fill="#fff" />
<path d="M48 51 Q50 54 52 51" fill="none" stroke="#6A3D18" stroke-width="1.5" stroke-linecap="round" />
<circle cx="47.5" cy="52" r="1" fill="#6A3D18" opacity="0.5"/>
<circle cx="52.5" cy="52" r="1" fill="#6A3D18" opacity="0.5"/>
<ellipse cx="50" cy="26" rx="23" ry="15" fill="#2c1810" />
<rect x="27" y="26" width="46" height="13" fill="#2c1810"/>
<ellipse cx="27" cy="40" rx="6" ry="12" fill="#2c1810" />
<ellipse cx="73" cy="40" rx="6" ry="12" fill="#2c1810" />
<path d="M32 20 Q45 18 70 26" fill="none" stroke="#4a362e" stroke-width="3" stroke-linecap="round" opacity="0.5"/>
<path d="M43 57 Q48 61 55 58" fill="none" stroke="#c0605a" stroke-width="2.2" stroke-linecap="round" />
<path d="M36 58 Q38 68 50 70 Q62 68 64 58 Q58 62 50 62 Q42 62 36 58Z" fill="#2c1810" opacity="0.85"/>
</svg>